<svg xmlns="http://www.w3.org/2000/svg" width="56" height="56" viewBox="0 0 56 56" fill="none">
  <rect width="56" height="56" rx="12" fill="#A6E3D0"/>
  <rect x="14" y="16" width="28" height="24" rx="2" fill="#065f46"/>
  <rect x="18" y="20" width="4" height="3" fill="#A6E3D0"/>
  <rect x="24" y="20" width="4" height="3" fill="#A6E3D0"/>
  <rect x="30" y="20" width="4" height="3" fill="#A6E3D0"/>
  <rect x="36" y="20" width="4" height="3" fill="#A6E3D0"/>
  <rect x="18" y="25" width="4" height="3" fill="#A6E3D0"/>
  <rect x="24" y="25" width="4" height="3" fill="#A6E3D0"/>
  <rect x="30" y="25" width="4" height="3" fill="#A6E3D0"/>
  <rect x="36" y="25" width="4" height="3" fill="#A6E3D0"/>
  <rect x="18" y="30" width="4" height="3" fill="#A6E3D0"/>
  <rect x="24" y="30" width="4" height="3" fill="#A6E3D0"/>
  <rect x="30" y="30" width="4" height="3" fill="#A6E3D0"/>
  <rect x="36" y="30" width="4" height="3" fill="#A6E3D0"/>
  <rect x="18" y="35" width="22" height="3" fill="#A6E3D0"/>
</svg>