<svg xmlns="http://www.w3.org/2000/svg" width="600" height="360" viewBox="0 0 600 360" fill="none">
  <rect width="600" height="360" rx="8" fill="#0b1220"/>
  <rect x="20" y="20" width="560" height="320" rx="4" fill="#14233b"/>
  
  <!-- Header -->
  <rect x="40" y="40" width="520" height="40" rx="4" fill="#1e293b"/>
  <text x="300" y="65" fill="#A6E3D0" font-family="Inter" font-size="18" text-anchor="middle">CAMPUS DIGITAL</text>
  
  <!-- Schedule section -->
  <rect x="40" y="100" width="240" height="120" rx="4" fill="#1e293b"/>
  <rect x="50" y="110" width="100" height="15" rx="2" fill="#A6E3D0"/>
  <rect x="50" y="135" width="80" height="12" rx="2" fill="#64748b"/>
  <rect x="50" y="155" width="120" height="12" rx="2" fill="#64748b"/>
  <rect x="50" y="175" width="90" height="12" rx="2" fill="#64748b"/>
  <rect x="50" y="195" width="110" height="12" rx="2" fill="#64748b"/>
  
  <!-- Announcements -->
  <rect x="300" y="100" width="240" height="120" rx="4" fill="#1e293b"/>
  <rect x="310" y="110" width="120" height="15" rx="2" fill="#A6E3D0"/>
  <rect x="310" y="135" width="180" height="12" rx="2" fill="#64748b"/>
  <rect x="310" y="155" width="160" height="12" rx="2" fill="#64748b"/>
  <rect x="310" y="175" width="140" height="12" rx="2" fill="#64748b"/>
  
  <!-- Emergency alert -->
  <rect x="40" y="240" width="520" height="40" rx="4" fill="#dc2626"/>
  <text x="300" y="265" fill="#ffffff" font-family="Inter" font-size="14" text-anchor="middle">ALERTA: Aula cancelada - Sala 201</text>
  
  <!-- Live indicator -->
  <circle cx="570" cy="50" r="4" fill="#86efac"/>
  <text x="545" y="55" fill="#86efac" font-family="Inter" font-size="12">LIVE</text>
</svg>