<svg xmlns="http://www.w3.org/2000/svg" width="600" height="360" viewBox="0 0 600 360" fill="none">
  <rect width="600" height="360" rx="8" fill="#0b1220"/>
  <rect x="20" y="20" width="560" height="320" rx="4" fill="#14233b"/>
  
  <!-- Event header -->
  <rect x="40" y="40" width="520" height="40" rx="4" fill="#1e293b"/>
  <text x="300" y="65" fill="#A6E3D0" font-family="Inter" font-size="18" text-anchor="middle">PROGRAMA DO EVENTO</text>
  
  <!-- Schedule -->
  <rect x="40" y="100" width="240" height="140" rx="4" fill="#1e293b"/>
  <text x="160" y="120" fill="#A6E3D0" font-family="Inter" font-size="14" text-anchor="middle">HOJE</text>
  
  <rect x="50" y="135" width="220" height="20" rx="2" fill="#334155"/>
  <text x="60" y="149" fill="#cbd5e1" font-family="Inter" font-size="11">09:00 - Abertura</text>
  <text x="200" y="149" fill="#86efac" font-family="Inter" font-size="11">Audit贸rio A</text>
  
  <rect x="50" y="160" width="220" height="20" rx="2" fill="#334155"/>
  <text x="60" y="174" fill="#cbd5e1" font-family="Inter" font-size="11">10:30 - Keynote</text>
  <text x="200" y="174" fill="#86efac" font-family="Inter" font-size="11">Audit贸rio A</text>
  
  <rect x="50" y="185" width="220" height="20" rx="2" fill="#334155"/>
  <text x="60" y="199" fill="#cbd5e1" font-family="Inter" font-size="11">12:00 - Workshop</text>
  <text x="200" y="199" fill="#FDDC5C" font-family="Inter" font-size="11">Sala 101</text>
  
  <rect x="50" y="210" width="220" height="20" rx="2" fill="#334155"/>
  <text x="60" y="224" fill="#cbd5e1" font-family="Inter" font-size="11">14:00 - Painel</text>
  <text x="200" y="224" fill="#86efac" font-family="Inter" font-size="11">Audit贸rio B</text>
  
  <!-- Sponsors -->
  <rect x="300" y="100" width="240" height="140" rx="4" fill="#1e293b"/>
  <text x="420" y="120" fill="#A6E3D0" font-family="Inter" font-size="14" text-anchor="middle">PATROCINADORES</text>
  
  <rect x="310" y="135" width="60" height="40" rx="4" fill="#065f46"/>
  <rect x="380" y="135" width="60" height="40" rx="4" fill="#065f46"/>
  <rect x="450" y="135" width="60" height="40" rx="4" fill="#065f46"/>
  
  <rect x="310" y="185" width="60" height="40" rx="4" fill="#065f46"/>
  <rect x="380" y="185" width="60" height="40" rx="4" fill="#065f46"/>
  <rect x="450" y="185" width="60" height="40" rx="4" fill="#065f46"/>
  
  <!-- Current event highlight -->
  <rect x="40" y="260" width="520" height="40" rx="4" fill="#065f46"/>
  <text x="300" y="285" fill="#A6E3D0" font-family="Inter" font-size="14" text-anchor="middle">AGORA: Keynote - "O Futuro da Tecnologia" - Audit贸rio A</text>
  
  <!-- Live indicator -->
  <circle cx="570" cy="50" r="4" fill="#86efac"/>
  <text x="545" y="55" fill="#86efac" font-family="Inter" font-size="12">LIVE</text>
</svg>