<svg xmlns="http://www.w3.org/2000/svg" width="600" height="360" viewBox="0 0 600 360" fill="none">
  <rect width="600" height="360" rx="8" fill="#0b1220"/>
  <rect x="20" y="20" width="560" height="320" rx="4" fill="#14233b"/>
  
  <!-- Menu header -->
  <rect x="40" y="40" width="520" height="40" rx="4" fill="#1e293b"/>
  <rect x="60" y="50" width="150" height="20" rx="2" fill="#A6E3D0"/>
  <text x="250" y="65" fill="#A6E3D0" font-family="Inter" font-size="16" text-anchor="middle">MENU DIGITAL</text>
  
  <!-- Menu items -->
  <rect x="40" y="100" width="240" height="80" rx="4" fill="#1e293b"/>
  <rect x="50" y="110" width="120" height="15" rx="2" fill="#A6E3D0"/>
  <rect x="50" y="135" width="180" height="12" rx="2" fill="#64748b"/>
  <rect x="50" y="155" width="60" height="15" rx="2" fill="#FDDC5C"/>
  
  <rect x="300" y="100" width="240" height="80" rx="4" fill="#1e293b"/>
  <rect x="310" y="110" width="120" height="15" rx="2" fill="#A6E3D0"/>
  <rect x="310" y="135" width="180" height="12" rx="2" fill="#64748b"/>
  <rect x="310" y="155" width="60" height="15" rx="2" fill="#FDDC5C"/>
  
  <rect x="40" y="200" width="240" height="80" rx="4" fill="#1e293b"/>
  <rect x="50" y="210" width="120" height="15" rx="2" fill="#A6E3D0"/>
  <rect x="50" y="235" width="180" height="12" rx="2" fill="#64748b"/>
  <rect x="50" y="255" width="60" height="15" rx="2" fill="#FDDC5C"/>
  
  <rect x="300" y="200" width="240" height="80" rx="4" fill="#1e293b"/>
  <rect x="310" y="210" width="120" height="15" rx="2" fill="#A6E3D0"/>
  <rect x="310" y="235" width="180" height="12" rx="2" fill="#64748b"/>
  <rect x="310" y="255" width="60" height="15" rx="2" fill="#FDDC5C"/>
  
  <!-- Promotion banner -->
  <rect x="40" y="300" width="520" height="30" rx="4" fill="#065f46"/>
  <text x="300" y="320" fill="#A6E3D0" font-family="Inter" font-size="14" text-anchor="middle">HAPPY HOUR - 50% OFF</text>
  
  <!-- Live indicator -->
  <circle cx="570" cy="50" r="4" fill="#86efac"/>
  <text x="545" y="55" fill="#86efac" font-family="Inter" font-size="12">LIVE</text>
</svg>