<svg xmlns="http://www.w3.org/2000/svg" width="600" height="360" viewBox="0 0 600 360" fill="none">
  <rect width="600" height="360" rx="8" fill="#0b1220"/>
  <rect x="20" y="20" width="560" height="320" rx="4" fill="#14233b"/>
  
  <!-- Store layout -->
  <rect x="40" y="40" width="160" height="100" rx="4" fill="#1e293b"/>
  <rect x="220" y="40" width="160" height="100" rx="4" fill="#1e293b"/>
  <rect x="400" y="40" width="160" height="100" rx="4" fill="#1e293b"/>
  
  <!-- Product info -->
  <rect x="50" y="50" width="140" height="20" rx="2" fill="#A6E3D0"/>
  <rect x="50" y="80" width="100" height="15" rx="2" fill="#86efac"/>
  <rect x="50" y="105" width="80" height="15" rx="2" fill="#FDDC5C"/>
  
  <rect x="230" y="50" width="140" height="20" rx="2" fill="#A6E3D0"/>
  <rect x="230" y="80" width="100" height="15" rx="2" fill="#86efac"/>
  <rect x="230" y="105" width="80" height="15" rx="2" fill="#FDDC5C"/>
  
  <rect x="410" y="50" width="140" height="20" rx="2" fill="#A6E3D0"/>
  <rect x="410" y="80" width="100" height="15" rx="2" fill="#86efac"/>
  <rect x="410" y="105" width="80" height="15" rx="2" fill="#FDDC5C"/>
  
  <!-- Promotion banner -->
  <rect x="40" y="160" width="520" height="60" rx="4" fill="#065f46"/>
  <rect x="60" y="175" width="200" height="30" rx="2" fill="#A6E3D0"/>
  <rect x="280" y="180" width="120" height="20" rx="2" fill="#86efac"/>
  
  <!-- Footer info -->
  <rect x="40" y="240" width="520" height="80" rx="4" fill="#1e293b"/>
  <rect x="60" y="260" width="100" height="15" rx="2" fill="#64748b"/>
  <rect x="60" y="285" width="150" height="15" rx="2" fill="#64748b"/>
  
  <!-- Live indicator -->
  <circle cx="570" cy="50" r="4" fill="#86efac"/>
  <text x="545" y="55" fill="#86efac" font-family="Inter" font-size="12">LIVE</text>
</svg>