<svg xmlns="http://www.w3.org/2000/svg" width="600" height="360" viewBox="0 0 600 360" fill="none">
  <rect width="600" height="360" rx="8" fill="#0b1220"/>
  <rect x="20" y="20" width="560" height="320" rx="4" fill="#14233b"/>
  
  <!-- Dashboard header -->
  <rect x="40" y="40" width="520" height="40" rx="4" fill="#1e293b"/>
  <text x="300" y="65" fill="#A6E3D0" font-family="Inter" font-size="18" text-anchor="middle">DASHBOARD CORPORATIVO</text>
  
  <!-- KPI Cards -->
  <rect x="40" y="100" width="120" height="80" rx="4" fill="#1e293b"/>
  <text x="100" y="120" fill="#A6E3D0" font-family="Inter" font-size="12" text-anchor="middle">Vendas</text>
  <text x="100" y="145" fill="#86efac" font-family="Inter" font-size="20" text-anchor="middle">€125K</text>
  <text x="100" y="165" fill="#86efac" font-family="Inter" font-size="10" text-anchor="middle">+12%</text>
  
  <rect x="180" y="100" width="120" height="80" rx="4" fill="#1e293b"/>
  <text x="240" y="120" fill="#A6E3D0" font-family="Inter" font-size="12" text-anchor="middle">Clientes</text>
  <text x="240" y="145" fill="#86efac" font-family="Inter" font-size="20" text-anchor="middle">1,247</text>
  <text x="240" y="165" fill="#86efac" font-family="Inter" font-size="10" text-anchor="middle">+8%</text>
  
  <rect x="320" y="100" width="120" height="80" rx="4" fill="#1e293b"/>
  <text x="380" y="120" fill="#A6E3D0" font-family="Inter" font-size="12" text-anchor="middle">Suporte</text>
  <text x="380" y="145" fill="#fbbf24" font-family="Inter" font-size="20" text-anchor="middle">23</text>
  <text x="380" y="165" fill="#fbbf24" font-family="Inter" font-size="10" text-anchor="middle">tickets</text>
  
  <rect x="460" y="100" width="120" height="80" rx="4" fill="#1e293b"/>
  <text x="520" y="120" fill="#A6E3D0" font-family="Inter" font-size="12" text-anchor="middle">Uptime</text>
  <text x="520" y="145" fill="#86efac" font-family="Inter" font-size="20" text-anchor="middle">99.9%</text>
  <text x="520" y="165" fill="#86efac" font-family="Inter" font-size="10" text-anchor="middle">sistemas</text>
  
  <!-- Chart area -->
  <rect x="40" y="200" width="520" height="100" rx="4" fill="#1e293b"/>
  <rect x="60" y="220" width="480" height="60" rx="2" fill="#334155"/>
  
  <!-- Chart lines -->
  <path d="M80 260 L120 240 L160 250 L200 230 L240 220 L280 210 L320 215 L360 200 L400 195 L440 185 L480 180 L520 175" stroke="#86efac" stroke-width="2" fill="none"/>
  
  <!-- Live indicator -->
  <circle cx="570" cy="50" r="4" fill="#86efac"/>
  <text x="545" y="55" fill="#86efac" font-family="Inter" font-size="12">LIVE</text>
</svg>